<svg width="172" height="56" viewBox="0 0 172 56" fill="none" xmlns="http://www.w3.org/2000/svg">
<g clip-path="url(#clip0_3020_2977)">
<path d="M40.0808 32.5667C41.8976 25.4792 46.5896 21.4763 51.7844 21.4763C57.8523 21.4763 58.7431 25.2518 57.0321 32.0897L56.3529 34.6706H45.6548C44.9757 37.9291 45.8223 38.7047 48.3933 38.7047C50.5541 38.7047 53.1823 37.7864 55.0035 37.256L53.6409 42.1771C52.1328 42.8547 49.8264 43.6525 46.8807 43.6525C40.5394 43.6525 38.2375 39.7478 40.0808 32.5622V32.5667ZM52.6531 30.5786L52.7942 30.0615C53.6101 27.1151 53.0456 26.2682 50.9686 26.2682C48.8916 26.2682 47.7891 27.0081 46.7969 30.5786H52.6531Z" fill="#FE7A13"/>
<path d="M60.4893 21.9578H65.7237L65.5649 34.6706L71.8445 21.9578H77.6787L66.8658 43.0998H60.6657L60.4937 21.9578H60.4893Z" fill="#FE7A13"/>
<path d="M106.991 21.9578H112.225L112.066 34.6706L118.346 21.9578H124.18L113.367 43.0998H107.167L106.995 21.9578H106.991Z" fill="#FE7A13"/>
<path d="M75.6812 32.5713C77.6171 25.5373 82.3444 21.481 88.0022 21.481C93.66 21.481 95.9266 25.5329 94.0216 32.4509C92.0857 39.4849 87.4862 43.6572 81.8946 43.6572C76.303 43.6572 73.7762 39.4849 75.6812 32.5668V32.5713ZM88.0904 32.6872L88.2844 32.0319C89.7573 27.3159 89.1267 26.3709 87.0364 26.3709C84.9462 26.3709 83.782 27.3159 82.34 31.9428L82.1548 32.598C80.5628 37.7019 81.2552 38.7717 83.244 38.7717C85.2328 38.7717 86.5249 37.6975 88.0904 32.6827V32.6872Z" fill="#FE7A13"/>
<path d="M102.242 12.4365H107.63L99.2032 43.0999H93.8145L102.242 12.4365Z" fill="#FE7A13"/>
<path d="M126.844 21.9578H132.264L126.443 43.0998H121.023L126.844 21.9578Z" fill="#FE7A13"/>
<path d="M136.236 21.9578H141.572L141.105 23.6606C141.105 23.6606 141.705 23.0544 142.591 22.4838C143.477 21.9133 144.717 21.4854 146.317 21.4854C150.194 21.4854 151.3 24.1866 149.788 29.6738L146.088 43.1089H140.734L144.739 28.6754C145.241 26.8478 144.655 26.4912 143.319 26.4912C141.982 26.4912 141.198 26.8478 140.108 27.4451L135.765 43.1089H130.411L136.232 21.9668L136.236 21.9578Z" fill="#FE7A13"/>
<path d="M129.446 12.4365H134.896L133.45 17.7053H127.951L129.446 12.4365Z" fill="#FE7A13"/>
<path d="M172 21.9533H166.695L166.285 23.3752C165.266 22.1004 163.515 21.5967 162.082 21.5967C157.373 21.5967 153.814 25.4747 151.715 32.4419C149.616 39.409 150.864 43.0865 155.913 43.0865C157.893 43.0865 159.723 42.4178 161.064 41.5887L161.293 41.4505C161.293 41.4505 160.508 43.4787 160.212 44.0627C158.268 47.9541 154.872 47.5975 151.472 47.5975H68.3959L68.2725 53.0936H153.955C158.528 53.0936 163.692 52.0104 165.703 44.6778C167.714 37.3451 171.995 21.9533 171.995 21.9533H172ZM159.079 38.7716C157.064 38.7716 156.416 37.9781 157.787 33.427L158.541 31.1091C159.723 27.1909 160.927 26.4777 162.633 26.4777C163.758 26.4777 164.424 26.7942 165.121 27.3112L162.254 37.7196C161.452 38.2946 160.27 38.7671 159.075 38.7671L159.079 38.7716Z" fill="#FE7A13"/>
<path d="M70.05 56H74.7641L71.3024 52.2022H109.527L112.133 48.3018H71.5317L75.6725 44.4282H70.9584L64.7803 50.2141L70.05 56Z" fill="#FE7A13"/>
<path d="M12.5151 53.5795L18.0671 46.8308H19.5664L21.6258 53.5795H19.8795L19.465 52.0996H15.2316L14.0674 53.5795H12.5151ZM16.2106 50.8872H19.1343L18.4199 48.1413L16.2106 50.8872Z" fill="#FE7A13"/>
<path d="M25.502 53.5795L27.2747 46.8308H28.5315L30.6041 50.9139L34.7581 46.8308H36.0017L34.229 53.5795H32.7914L33.8894 49.4073C33.9335 49.2423 34.0129 49.0016 34.1319 48.6896C33.8806 49.0284 33.6865 49.2646 33.5587 49.3939L30.1631 52.7682H29.8544L28.2316 49.3805C28.1126 49.1354 28.042 48.9036 28.0111 48.6896C27.967 48.9615 27.9141 49.2022 27.8612 49.4073L26.7632 53.5795H25.5064H25.502Z" fill="#FE7A13"/>
<path d="M39.8735 53.5795L41.6463 46.8308H48.4815L48.1772 47.9809H42.8987L42.5018 49.4875H45.5798L45.2756 50.6375H42.1975L41.7565 52.3136H47.1012L46.7661 53.584H39.8691L39.8735 53.5795Z" fill="#FE7A13"/>
<path d="M60.4145 48.0076C60.4806 47.6064 60.4454 47.3122 60.291 47.1428C60.1014 46.9333 59.7001 46.8308 59.0872 46.8308H55.2947C54.6553 46.8308 54.1923 46.9378 53.9012 47.1562C53.6102 47.3746 53.3853 47.7981 53.2177 48.4266L53.0237 49.171C52.8605 49.7995 52.8649 50.223 53.0413 50.4414C53.2177 50.6598 53.6234 50.7668 54.2628 50.7668H58.4301L58.0244 52.3091L51.9477 52.3002C51.8639 52.7504 51.8903 53.0714 52.0359 53.2497C52.2167 53.4681 52.6268 53.5751 53.2618 53.5751H57.3894C58.0288 53.5751 58.4962 53.4681 58.7873 53.2497C59.0827 53.0312 59.312 52.6078 59.4752 51.9793L59.7177 51.0521C59.8809 50.4236 59.8765 50.0001 59.6957 49.7817C59.5149 49.5633 59.1048 49.4563 58.4654 49.4563H54.2893L54.6685 48.0031H60.4101L60.4145 48.0076Z" fill="#FE7A13"/>
<path d="M4.29963 50.8069H6.83527L6.43838 52.3136H1.5876L2.7121 48.0343H9.06222C9.13277 47.6198 9.0975 47.3211 8.95197 47.1518C8.76676 46.9378 8.36106 46.8308 7.74369 46.8308H3.13103C2.49161 46.8308 2.02858 46.9378 1.73753 47.1562C1.44649 47.3746 1.22159 47.7981 1.05401 48.4266L0.119136 51.9837C-0.0440267 52.6122 -0.0396169 53.0357 0.136775 53.2541C0.313167 53.4725 0.718869 53.5795 1.35829 53.5795H5.96654C6.60596 53.5795 7.06899 53.4725 7.36003 53.2541C7.65108 53.0357 7.87598 52.6122 8.04355 51.9837L8.65652 49.6569H4.60391L4.29963 50.8069Z" fill="#FE7A13"/>
<path d="M26.4851 7.979H20.7391L25.1533 12.4321L10.9008 12.441L2.46045 43.1757H7.72576L14.7373 17.7009H25.1533L20.1041 22.4214H25.8545L33.3864 14.8347L26.4851 7.979Z" fill="#FE7A13"/>
<path d="M29.475 0.0178301C29.475 0.0178301 29.4618 0.00445753 29.4618 0L14.3229 0.0178301L12.903 5.1752H29.1663V5.19749C34.4272 5.54072 38.4313 9.97151 38.2285 15.3874C38.03 20.6874 33.8716 25.0424 28.743 25.5506V25.613L31.8783 38.8251L27.1995 38.8118L24.0245 25.613H17.2819L12.4443 43.1801H17.7405L20.6907 32.5712L23.1028 43.1579L37.836 43.1801L34.4272 29.1344C39.4985 26.607 43.1101 21.4006 43.3394 15.3874C43.6569 7.14989 37.5053 0.423466 29.475 0.0178301Z" fill="#FE7A13"/>
</g>
<defs>
<clipPath id="clip0_3020_2977">
<rect width="172" height="56" fill="white"/>
</clipPath>
</defs>
</svg>
